# xmcd
#
# Track frame offsets:
#	150
#	16040
#	29167
#	43706
#	58186
#	75542
#	89535
#	104838
#	120634
#	137300
#	158133
#	175266
#	192214
#	205523
#	219458
#	233823
#	248291
#	264264
#	277408
#	292158
#	306391
#
# Disc length: 4265 seconds
#
# Revision: 0
# Processed by: cddbd v1.5.2PL0 Copyright (c) Steve Scherf et al.
# Submitted via: EasyCDDAExtractor 16.0.9.1
#
DISCID=2f10a715
DTITLE=Hott Country Volume 236 Canada
DYEAR=2015
DGENRE=country
TTITLE0=Rascal Flatts\n - I Like The Sound Of That\n
TTITLE1=Jess Moskaluke\n - Kiss Me Quiet\n
TTITLE2=Zac Brown Band\n - Beautiful Drug\n
TTITLE3=Cold Creek County\n - Till The Wheels Come Off\n
TTITLE4=Brantley Gilbert\n - Stone Cold Sober\n
TTITLE5=Eric Paslay\n - High Class\n
TTITLE6=Jon Pardi\n - Head Over Boots\n
TTITLE7=Gord Bamford\n - Don't Let Her Be Gone\n
TTITLE8=Granger Smith\n - Backroad Song\n
TTITLE9=Eric Church\n - Roller Coaster Ride\n
TTITLE10=Thomas Rhett\n - Die A Happy Man\n
TTITLE11=Craig Morgan\n - When I'm Gone\n
TTITLE12=Joe Nichols\n - Freaks Like Me\n
TTITLE13=Dustin Lynch\n - Mind Reader\n
TTITLE14=The Boom Chucka Boys\n - Can't Take My Lips Off You\n
TTITLE15=Lauren Alaina\n - Next Boyfriend\n
TTITLE16=Johnny Reid\n - A Picture Of You\n
TTITLE17=Jesse Labelle\n - You Left Me (Breathless]\n
TTITLE18=Jason Blaine\n - Spotlight\n
TTITLE19=Hey Romeo\n - Pushing Up Daisies\n
TTITLE20=Autumn Hill\n - Return Policy\n
EXTD=
EXTT0=
EXTT1=
EXTT2=
EXTT3=
EXTT4=
EXTT5=
EXTT6=
EXTT7=
EXTT8=
EXTT9=
EXTT10=
EXTT11=
EXTT12=
EXTT13=
EXTT14=
EXTT15=
EXTT16=
EXTT17=
EXTT18=
EXTT19=
EXTT20=
PLAYORDER=
